<svg width="700" height="600" viewBox="0 0 700 600" fill="none" xmlns="http://www.w3.org/2000/svg">
<rect x="0.5" y="0.5" width="699" height="599" fill="url(#paint0_radial_7_2)" style="mix-blend-mode:darken"/>
<rect x="0.5" y="0.5" width="699" height="599" stroke="black"/>
<rect x="2.90195" y="526" width="696.294" height="69" rx="10" fill="black"/>
<rect x="3" y="527" width="88.1936" height="67" rx="9" fill="url(#paint1_radial_7_2)" stroke="black" stroke-width="2"/>
<rect x="92.2916" y="527" width="106.232" height="67" rx="9" fill="url(#paint2_radial_7_2)" stroke="black" stroke-width="2"/>
<rect x="199.622" y="527" width="88.1936" height="67" rx="9" fill="url(#paint3_linear_7_2)" stroke="black" stroke-width="2"/>
<rect x="288.914" y="527" width="88.1936" height="67" rx="9" fill="url(#paint4_linear_7_2)" stroke="black" stroke-width="2"/>
<rect x="378.205" y="527" width="106.232" height="67" rx="9" fill="url(#paint5_linear_7_2)" stroke="black" stroke-width="2"/>
<rect x="484.634" y="527" width="106.232" height="67" rx="9" fill="url(#paint6_linear_7_2)" stroke="black" stroke-width="2"/>
<rect x="591.964" y="527" width="106.232" height="67" rx="9" fill="url(#paint7_linear_7_2)" stroke="black" stroke-width="2"/>
<rect x="2" y="526" width="89.2916" height="69" rx="10" fill="black"/>
<rect x="3" y="527" width="88.1936" height="67" rx="9" fill="url(#paint8_radial_7_2)" stroke="black" stroke-width="2"/>
<rect x="91.2916" y="526" width="107.33" height="69" rx="10" fill="black"/>
<rect x="92.2916" y="527" width="106.232" height="67" rx="9" fill="url(#paint9_radial_7_2)" stroke="black" stroke-width="2"/>
<rect x="198.622" y="526" width="89.2916" height="69" rx="10" fill="black"/>
<rect x="199.622" y="527" width="88.1936" height="67" rx="9" fill="url(#paint10_linear_7_2)" stroke="black" stroke-width="2"/>
<rect x="287.914" y="526" width="89.2916" height="69" rx="10" fill="black"/>
<rect x="288.914" y="527" width="88.1936" height="67" rx="9" fill="url(#paint11_linear_7_2)" stroke="black" stroke-width="2"/>
<rect x="377.205" y="526" width="106.428" height="69" rx="10" fill="black"/>
<rect x="378.205" y="527" width="106.232" height="67" rx="9" fill="url(#paint12_linear_7_2)" stroke="black" stroke-width="2"/>
<rect x="484.535" y="526" width="107.33" height="69" rx="10" fill="black"/>
<rect x="484.634" y="527" width="106.232" height="67" rx="9" fill="url(#paint13_linear_7_2)" stroke="black" stroke-width="2"/>
<rect x="590.964" y="526" width="108.232" height="69" rx="10" fill="black"/>
<rect x="591.964" y="527" width="106.232" height="67" rx="9" fill="url(#paint14_linear_7_2)" stroke="black" stroke-width="2"/>
<rect x="80" y="44" width="99" height="76" rx="10" fill="black"/>
<rect x="81" y="45" width="98" height="74" rx="9" fill="url(#paint15_radial_7_2)" stroke="black" stroke-width="2"/>
<path d="M111.406 89V67.1818H120.824C122.443 67.1818 123.86 67.5014 125.075 68.1406C126.289 68.7798 127.234 69.6783 127.908 70.8359C128.583 71.9936 128.92 73.3466 128.92 74.8949C128.92 76.4574 128.572 77.8104 127.876 78.9538C127.188 80.0973 126.218 80.978 124.968 81.5959C123.725 82.2138 122.273 82.5227 120.611 82.5227H114.986V77.9205H119.418C120.114 77.9205 120.707 77.7997 121.197 77.5582C121.694 77.3097 122.074 76.9581 122.337 76.5036C122.607 76.049 122.741 75.5128 122.741 74.8949C122.741 74.2699 122.607 73.7372 122.337 73.2969C122.074 72.8494 121.694 72.5085 121.197 72.2741C120.707 72.0327 120.114 71.9119 119.418 71.9119H117.33V89H111.406ZM134.503 78.2188V92.75H130.625V78.2188H134.503Z" fill="white"/>
<rect x="119" y="224" width="119" height="76" rx="10" fill="black"/>
<rect x="120" y="225" width="118" height="74" rx="9" fill="url(#paint16_radial_7_2)" stroke="black" stroke-width="2"/>
<path d="M149.406 271V249.182H155.33V266.227H164.151V271H149.406ZM171.19 271.256C170.146 271.256 169.222 271.085 168.42 270.744C167.624 270.396 166.999 269.871 166.545 269.168C166.09 268.464 165.863 267.57 165.863 266.483C165.863 265.588 166.016 264.825 166.321 264.192C166.627 263.553 167.053 263.031 167.6 262.626C168.146 262.222 168.782 261.913 169.507 261.7C170.238 261.487 171.026 261.348 171.872 261.284C172.788 261.213 173.523 261.128 174.077 261.028C174.638 260.922 175.043 260.776 175.291 260.592C175.54 260.4 175.664 260.148 175.664 259.835V259.793C175.664 259.366 175.501 259.04 175.174 258.812C174.847 258.585 174.428 258.472 173.917 258.472C173.356 258.472 172.898 258.596 172.543 258.844C172.195 259.086 171.985 259.459 171.914 259.963H166.502C166.573 258.969 166.889 258.053 167.45 257.214C168.019 256.369 168.846 255.695 169.933 255.19C171.019 254.679 172.376 254.423 174.002 254.423C175.174 254.423 176.225 254.562 177.156 254.839C178.086 255.109 178.878 255.489 179.531 255.979C180.185 256.462 180.682 257.03 181.023 257.683C181.371 258.33 181.545 259.033 181.545 259.793V271H176.048V268.699H175.92C175.593 269.31 175.195 269.803 174.727 270.18C174.265 270.556 173.736 270.83 173.139 271C172.55 271.17 171.9 271.256 171.19 271.256ZM173.107 267.548C173.555 267.548 173.974 267.456 174.365 267.271C174.762 267.087 175.085 266.82 175.334 266.472C175.583 266.124 175.707 265.702 175.707 265.205V263.841C175.551 263.905 175.384 263.965 175.206 264.022C175.036 264.079 174.851 264.132 174.652 264.182C174.46 264.232 174.254 264.278 174.034 264.32C173.821 264.363 173.597 264.402 173.363 264.438C172.909 264.509 172.536 264.626 172.244 264.789C171.96 264.945 171.747 265.141 171.605 265.375C171.47 265.602 171.403 265.858 171.403 266.142C171.403 266.597 171.563 266.945 171.882 267.186C172.202 267.428 172.61 267.548 173.107 267.548ZM192.238 271.298C190.463 271.298 188.943 270.947 187.679 270.244C186.414 269.533 185.445 268.546 184.77 267.282C184.096 266.011 183.758 264.537 183.758 262.861C183.758 261.185 184.096 259.714 184.77 258.45C185.445 257.179 186.414 256.192 187.679 255.489C188.943 254.778 190.463 254.423 192.238 254.423C193.843 254.423 195.232 254.714 196.404 255.297C197.583 255.872 198.495 256.689 199.142 257.747C199.788 258.798 200.115 260.034 200.122 261.455H194.667C194.589 260.595 194.341 259.942 193.922 259.494C193.51 259.04 192.977 258.812 192.324 258.812C191.812 258.812 191.365 258.962 190.981 259.26C190.598 259.551 190.299 259.995 190.086 260.592C189.873 261.181 189.767 261.923 189.767 262.818C189.767 263.713 189.873 264.459 190.086 265.055C190.299 265.645 190.598 266.089 190.981 266.387C191.365 266.678 191.812 266.824 192.324 266.824C192.757 266.824 193.14 266.724 193.474 266.526C193.808 266.32 194.078 266.021 194.284 265.631C194.497 265.233 194.625 264.75 194.667 264.182H200.122C200.1 265.624 199.77 266.881 199.131 267.953C198.492 269.018 197.586 269.842 196.414 270.425C195.25 271.007 193.858 271.298 192.238 271.298ZM214.363 249.182V271H208.439V249.182H214.363Z" fill="white"/>
<rect x="130" y="378" width="99" height="76" rx="10" fill="black"/>
<rect x="131" y="379" width="98" height="74" rx="9" fill="url(#paint17_linear_7_2)" stroke="black" stroke-width="2"/>
<path d="M158.406 423V401.182H167.824C169.443 401.182 170.86 401.501 172.075 402.141C173.289 402.78 174.234 403.678 174.908 404.836C175.583 405.994 175.92 407.347 175.92 408.895C175.92 410.457 175.572 411.81 174.876 412.954C174.188 414.097 173.218 414.978 171.968 415.596C170.725 416.214 169.273 416.523 167.611 416.523H161.986V411.92H166.418C167.114 411.92 167.707 411.8 168.197 411.558C168.694 411.31 169.074 410.958 169.337 410.504C169.607 410.049 169.741 409.513 169.741 408.895C169.741 408.27 169.607 407.737 169.337 407.297C169.074 406.849 168.694 406.509 168.197 406.274C167.707 406.033 167.114 405.912 166.418 405.912H164.33V423H158.406ZM181.503 412.219V426.75H177.625V412.219H181.503ZM186.691 426.963C185.952 426.963 185.295 426.839 184.72 426.59C184.152 426.349 183.705 425.979 183.378 425.482C183.058 424.992 182.898 424.378 182.898 423.639C182.898 422.922 183.033 422.343 183.303 421.903C183.58 421.462 183.928 421.125 184.347 420.891C184.773 420.649 185.221 420.479 185.69 420.379C186.165 420.28 186.599 420.216 186.989 420.188C187.7 420.116 188.236 420.056 188.598 420.006C188.967 419.957 189.216 419.882 189.344 419.783C189.479 419.683 189.546 419.52 189.546 419.293V419.548C189.546 419.25 189.468 419.012 189.312 418.835C189.156 418.657 188.864 418.568 188.438 418.568C187.906 418.568 187.526 418.685 187.298 418.92C187.071 419.154 186.925 419.378 186.862 419.591L183.282 419.25C183.538 418.121 184.113 417.251 185.008 416.64C185.91 416.022 187.053 415.713 188.438 415.713C189.191 415.713 189.951 415.827 190.718 416.054C191.485 416.274 192.128 416.672 192.646 417.247C193.165 417.815 193.424 418.625 193.424 419.676V426.75H189.759V425.557H189.674C189.461 425.919 189.116 426.242 188.641 426.526C188.172 426.817 187.522 426.963 186.691 426.963ZM187.799 424.278C188.183 424.278 188.506 424.222 188.768 424.108C189.038 423.994 189.241 423.852 189.376 423.682C189.518 423.511 189.589 423.341 189.589 423.17V422.148C189.489 422.219 189.305 422.283 189.035 422.339C188.772 422.389 188.499 422.435 188.214 422.478C187.938 422.513 187.728 422.545 187.586 422.574C187.479 422.595 187.288 422.673 187.011 422.808C186.741 422.943 186.606 423.192 186.606 423.554C186.606 423.831 186.719 424.019 186.947 424.119C187.174 424.225 187.458 424.278 187.799 424.278ZM200.487 426.963C199.294 426.963 198.278 426.729 197.44 426.26C196.602 425.791 195.963 425.134 195.523 424.289C195.082 423.444 194.862 422.46 194.862 421.338C194.862 420.216 195.082 419.232 195.523 418.387C195.97 417.542 196.609 416.885 197.44 416.416C198.278 415.947 199.28 415.713 200.445 415.713C202.064 415.713 203.328 416.125 204.237 416.949C205.153 417.773 205.622 418.824 205.643 420.102H202.021C201.936 419.676 201.776 419.342 201.542 419.101C201.315 418.859 200.977 418.739 200.53 418.739C200.161 418.739 199.844 418.835 199.582 419.026C199.326 419.211 199.127 419.495 198.985 419.879C198.85 420.255 198.783 420.727 198.783 421.295C198.783 421.878 198.85 422.361 198.985 422.744C199.127 423.128 199.326 423.415 199.582 423.607C199.844 423.799 200.161 423.895 200.53 423.895C200.956 423.895 201.286 423.774 201.521 423.533C201.762 423.298 201.915 422.979 201.979 422.574H205.643C205.601 423.874 205.125 424.928 204.216 425.738C203.307 426.555 202.064 426.963 200.487 426.963Z" fill="white"/>
<rect x="363" y="288" width="99" height="76" rx="10" fill="black"/>
<rect x="364" y="289" width="98" height="74" rx="9" fill="url(#paint18_linear_7_2)" stroke="black" stroke-width="2"/>
<path d="M425.543 324.091C425.543 326.52 425.07 328.569 424.126 330.238C423.181 331.9 421.906 333.161 420.301 334.02C418.696 334.872 416.906 335.298 414.932 335.298C412.943 335.298 411.146 334.869 409.541 334.009C407.943 333.143 406.672 331.879 405.727 330.217C404.79 328.548 404.321 326.506 404.321 324.091C404.321 321.662 404.79 319.616 405.727 317.955C406.672 316.286 407.943 315.025 409.541 314.173C411.146 313.313 412.943 312.884 414.932 312.884C416.906 312.884 418.696 313.313 420.301 314.173C421.906 315.025 423.181 316.286 424.126 317.955C425.07 319.616 425.543 321.662 425.543 324.091ZM419.449 324.091C419.449 322.784 419.275 321.683 418.927 320.788C418.586 319.886 418.078 319.205 417.403 318.743C416.736 318.274 415.912 318.04 414.932 318.04C413.952 318.04 413.124 318.274 412.45 318.743C411.782 319.205 411.274 319.886 410.926 320.788C410.585 321.683 410.415 322.784 410.415 324.091C410.415 325.398 410.585 326.502 410.926 327.404C411.274 328.299 411.782 328.981 412.45 329.45C413.124 329.911 413.952 330.142 414.932 330.142C415.912 330.142 416.736 329.911 417.403 329.45C418.078 328.981 418.586 328.299 418.927 327.404C419.275 326.502 419.449 325.398 419.449 324.091Z" fill="white"/>
<rect x="324" y="96" width="118" height="76" rx="10" fill="black"/>
<rect x="325" y="97" width="118" height="74" rx="9" fill="url(#paint19_linear_7_2)" stroke="black" stroke-width="2"/>
<path d="M352.406 143V121.182H358.33V138.227H367.151V143H352.406ZM374.19 143.256C373.146 143.256 372.222 143.085 371.42 142.744C370.624 142.396 369.999 141.871 369.545 141.168C369.09 140.464 368.863 139.57 368.863 138.483C368.863 137.588 369.016 136.825 369.321 136.192C369.627 135.553 370.053 135.031 370.6 134.626C371.146 134.222 371.782 133.913 372.507 133.7C373.238 133.487 374.026 133.348 374.872 133.284C375.788 133.213 376.523 133.128 377.077 133.028C377.638 132.922 378.043 132.776 378.291 132.592C378.54 132.4 378.664 132.148 378.664 131.835V131.793C378.664 131.366 378.501 131.04 378.174 130.812C377.847 130.585 377.428 130.472 376.917 130.472C376.356 130.472 375.898 130.596 375.543 130.844C375.195 131.086 374.985 131.459 374.914 131.963H369.502C369.573 130.969 369.889 130.053 370.45 129.214C371.019 128.369 371.846 127.695 372.933 127.19C374.019 126.679 375.376 126.423 377.002 126.423C378.174 126.423 379.225 126.562 380.156 126.839C381.086 127.109 381.878 127.489 382.531 127.979C383.185 128.462 383.682 129.03 384.023 129.683C384.371 130.33 384.545 131.033 384.545 131.793V143H379.048V140.699H378.92C378.593 141.31 378.195 141.803 377.727 142.18C377.265 142.556 376.736 142.83 376.139 143C375.55 143.17 374.9 143.256 374.19 143.256ZM376.107 139.548C376.555 139.548 376.974 139.456 377.365 139.271C377.762 139.087 378.085 138.82 378.334 138.472C378.583 138.124 378.707 137.702 378.707 137.205V135.841C378.551 135.905 378.384 135.965 378.206 136.022C378.036 136.079 377.851 136.132 377.652 136.182C377.46 136.232 377.254 136.278 377.034 136.32C376.821 136.363 376.597 136.402 376.363 136.438C375.909 136.509 375.536 136.626 375.244 136.789C374.96 136.945 374.747 137.141 374.605 137.375C374.47 137.602 374.403 137.858 374.403 138.142C374.403 138.597 374.563 138.945 374.882 139.186C375.202 139.428 375.61 139.548 376.107 139.548ZM395.238 143.298C393.463 143.298 391.943 142.947 390.679 142.244C389.414 141.533 388.445 140.546 387.77 139.282C387.096 138.011 386.758 136.537 386.758 134.861C386.758 133.185 387.096 131.714 387.77 130.45C388.445 129.179 389.414 128.192 390.679 127.489C391.943 126.778 393.463 126.423 395.238 126.423C396.843 126.423 398.232 126.714 399.404 127.297C400.583 127.872 401.495 128.689 402.142 129.747C402.788 130.798 403.115 132.034 403.122 133.455H397.667C397.589 132.595 397.341 131.942 396.922 131.494C396.51 131.04 395.977 130.812 395.324 130.812C394.812 130.812 394.365 130.962 393.981 131.26C393.598 131.551 393.299 131.995 393.086 132.592C392.873 133.181 392.767 133.923 392.767 134.818C392.767 135.713 392.873 136.459 393.086 137.055C393.299 137.645 393.598 138.089 393.981 138.387C394.365 138.678 394.812 138.824 395.324 138.824C395.757 138.824 396.14 138.724 396.474 138.526C396.808 138.32 397.078 138.021 397.284 137.631C397.497 137.233 397.625 136.75 397.667 136.182H403.122C403.1 137.624 402.77 138.881 402.131 139.953C401.492 141.018 400.586 141.842 399.414 142.425C398.25 143.007 396.858 143.298 395.238 143.298ZM411.525 143V139.719L421.837 125.955H411.567V121.182H429.38V124.463L419.067 138.227H429.337V143H411.525Z" fill="white"/>
<rect x="525" y="340" width="119" height="76" rx="10" fill="black"/>
<rect x="525" y="341" width="118" height="74" rx="9" fill="url(#paint20_linear_7_2)" stroke="black" stroke-width="2"/>
<path d="M551.406 387V365.182H557.33V382.227H566.151V387H551.406ZM573.19 387.256C572.146 387.256 571.222 387.085 570.42 386.744C569.624 386.396 568.999 385.871 568.545 385.168C568.09 384.464 567.863 383.57 567.863 382.483C567.863 381.588 568.016 380.825 568.321 380.192C568.627 379.553 569.053 379.031 569.6 378.626C570.146 378.222 570.782 377.913 571.507 377.7C572.238 377.487 573.026 377.348 573.872 377.284C574.788 377.213 575.523 377.128 576.077 377.028C576.638 376.922 577.043 376.776 577.291 376.592C577.54 376.4 577.664 376.148 577.664 375.835V375.793C577.664 375.366 577.501 375.04 577.174 374.812C576.847 374.585 576.428 374.472 575.917 374.472C575.356 374.472 574.898 374.596 574.543 374.844C574.195 375.086 573.985 375.459 573.914 375.963H568.502C568.573 374.969 568.889 374.053 569.45 373.214C570.019 372.369 570.846 371.695 571.933 371.19C573.019 370.679 574.376 370.423 576.002 370.423C577.174 370.423 578.225 370.562 579.156 370.839C580.086 371.109 580.878 371.489 581.531 371.979C582.185 372.462 582.682 373.03 583.023 373.683C583.371 374.33 583.545 375.033 583.545 375.793V387H578.048V384.699H577.92C577.593 385.31 577.195 385.803 576.727 386.18C576.265 386.556 575.736 386.83 575.139 387C574.55 387.17 573.9 387.256 573.19 387.256ZM575.107 383.548C575.555 383.548 575.974 383.456 576.365 383.271C576.762 383.087 577.085 382.82 577.334 382.472C577.583 382.124 577.707 381.702 577.707 381.205V379.841C577.551 379.905 577.384 379.965 577.206 380.022C577.036 380.079 576.851 380.132 576.652 380.182C576.46 380.232 576.254 380.278 576.034 380.32C575.821 380.363 575.597 380.402 575.363 380.438C574.909 380.509 574.536 380.626 574.244 380.789C573.96 380.945 573.747 381.141 573.605 381.375C573.47 381.602 573.403 381.858 573.403 382.142C573.403 382.597 573.563 382.945 573.882 383.186C574.202 383.428 574.61 383.548 575.107 383.548ZM594.238 387.298C592.463 387.298 590.943 386.947 589.679 386.244C588.414 385.533 587.445 384.546 586.77 383.282C586.096 382.011 585.758 380.537 585.758 378.861C585.758 377.185 586.096 375.714 586.77 374.45C587.445 373.179 588.414 372.192 589.679 371.489C590.943 370.778 592.463 370.423 594.238 370.423C595.843 370.423 597.232 370.714 598.404 371.297C599.583 371.872 600.495 372.689 601.142 373.747C601.788 374.798 602.115 376.034 602.122 377.455H596.667C596.589 376.595 596.341 375.942 595.922 375.494C595.51 375.04 594.977 374.812 594.324 374.812C593.812 374.812 593.365 374.962 592.981 375.26C592.598 375.551 592.299 375.995 592.086 376.592C591.873 377.181 591.767 377.923 591.767 378.818C591.767 379.713 591.873 380.459 592.086 381.055C592.299 381.645 592.598 382.089 592.981 382.387C593.365 382.678 593.812 382.824 594.324 382.824C594.757 382.824 595.14 382.724 595.474 382.526C595.808 382.32 596.078 382.021 596.284 381.631C596.497 381.233 596.625 380.75 596.667 380.182H602.122C602.1 381.624 601.77 382.881 601.131 383.953C600.492 385.018 599.586 385.842 598.414 386.425C597.25 387.007 595.858 387.298 594.238 387.298ZM609.545 365.182H616.15L620.411 374.045H620.581L624.843 365.182H631.448L623.437 380.139V387H617.556V380.139L609.545 365.182Z" fill="white"/>
<rect x="538" y="73" width="120" height="76" rx="10" fill="black"/>
<rect x="539" y="74" width="118" height="74" rx="9" fill="url(#paint21_linear_7_2)" stroke="black" stroke-width="2"/>
<path d="M566.406 120V98.1818H572.33V115.227H581.151V120H566.406ZM588.19 120.256C587.146 120.256 586.222 120.085 585.42 119.744C584.624 119.396 583.999 118.871 583.545 118.168C583.09 117.464 582.863 116.57 582.863 115.483C582.863 114.588 583.016 113.825 583.321 113.192C583.627 112.553 584.053 112.031 584.6 111.626C585.146 111.222 585.782 110.913 586.507 110.7C587.238 110.487 588.026 110.348 588.872 110.284C589.788 110.213 590.523 110.128 591.077 110.028C591.638 109.922 592.043 109.776 592.291 109.592C592.54 109.4 592.664 109.148 592.664 108.835V108.793C592.664 108.366 592.501 108.04 592.174 107.812C591.847 107.585 591.428 107.472 590.917 107.472C590.356 107.472 589.898 107.596 589.543 107.844C589.195 108.086 588.985 108.459 588.914 108.963H583.502C583.573 107.969 583.889 107.053 584.45 106.214C585.019 105.369 585.846 104.695 586.933 104.19C588.019 103.679 589.376 103.423 591.002 103.423C592.174 103.423 593.225 103.562 594.156 103.839C595.086 104.109 595.878 104.489 596.531 104.979C597.185 105.462 597.682 106.03 598.023 106.683C598.371 107.33 598.545 108.033 598.545 108.793V120H593.048V117.699H592.92C592.593 118.31 592.195 118.803 591.727 119.18C591.265 119.556 590.736 119.83 590.139 120C589.55 120.17 588.9 120.256 588.19 120.256ZM590.107 116.548C590.555 116.548 590.974 116.456 591.365 116.271C591.762 116.087 592.085 115.82 592.334 115.472C592.583 115.124 592.707 114.702 592.707 114.205V112.841C592.551 112.905 592.384 112.965 592.206 113.022C592.036 113.079 591.851 113.132 591.652 113.182C591.46 113.232 591.254 113.278 591.034 113.32C590.821 113.363 590.597 113.402 590.363 113.438C589.909 113.509 589.536 113.626 589.244 113.789C588.96 113.945 588.747 114.141 588.605 114.375C588.47 114.602 588.403 114.858 588.403 115.142C588.403 115.597 588.563 115.945 588.882 116.186C589.202 116.428 589.61 116.548 590.107 116.548ZM609.238 120.298C607.463 120.298 605.943 119.947 604.679 119.244C603.414 118.533 602.445 117.546 601.77 116.282C601.096 115.011 600.758 113.537 600.758 111.861C600.758 110.185 601.096 108.714 601.77 107.45C602.445 106.179 603.414 105.192 604.679 104.489C605.943 103.778 607.463 103.423 609.238 103.423C610.843 103.423 612.232 103.714 613.404 104.297C614.583 104.872 615.495 105.689 616.142 106.747C616.788 107.798 617.115 109.034 617.122 110.455H611.667C611.589 109.595 611.341 108.942 610.922 108.494C610.51 108.04 609.977 107.812 609.324 107.812C608.812 107.812 608.365 107.962 607.981 108.26C607.598 108.551 607.299 108.995 607.086 109.592C606.873 110.181 606.767 110.923 606.767 111.818C606.767 112.713 606.873 113.459 607.086 114.055C607.299 114.645 607.598 115.089 607.981 115.387C608.365 115.678 608.812 115.824 609.324 115.824C609.757 115.824 610.14 115.724 610.474 115.526C610.808 115.32 611.078 115.021 611.284 114.631C611.497 114.233 611.625 113.75 611.667 113.182H617.122C617.1 114.624 616.77 115.881 616.131 116.953C615.492 118.018 614.586 118.842 613.414 119.425C612.25 120.007 610.858 120.298 609.238 120.298ZM631.107 120H624.715L631.917 98.1818H640.013L647.215 120H640.823L636.05 104.19H635.88L631.107 120ZM629.914 111.392H641.931V115.824H629.914V111.392Z" fill="white"/>
<defs>
<radialGradient id="paint0_radial_7_2" cx="0" cy="0" r="1" gradientUnits="userSpaceOnUse" gradientTransform="translate(350 300) rotate(68.2142) scale(681.688 795.302)">
<stop stop-color="#1ED9E4" stop-opacity="0.71"/>
<stop offset="0.582426" stop-color="#FDEAFF" stop-opacity="0.532472"/>
</radialGradient>
<radialGradient id="paint1_radial_7_2" cx="0" cy="0" r="1" gradientUnits="userSpaceOnUse" gradientTransform="translate(47.0968 560.5) rotate(107.388) scale(87.5259 114.545)">
<stop stop-color="#CE25BD"/>
<stop offset="1" stop-color="#401C1C" stop-opacity="0"/>
</radialGradient>
<radialGradient id="paint2_radial_7_2" cx="0" cy="0" r="1" gradientUnits="userSpaceOnUse" gradientTransform="translate(139.996 585.013) rotate(13.452) scale(93.6652 148.764)">
<stop stop-color="#CD1E1E"/>
<stop offset="1" stop-color="#29D3C9" stop-opacity="0"/>
</radialGradient>
<linearGradient id="paint3_linear_7_2" x1="243.719" y1="526" x2="264.73" y2="645.795" gradientUnits="userSpaceOnUse">
<stop stop-color="#2BABBC"/>
<stop offset="1" stop-color="#36A60F" stop-opacity="0"/>
</linearGradient>
<linearGradient id="paint4_linear_7_2" x1="333.01" y1="526" x2="319.304" y2="644.914" gradientUnits="userSpaceOnUse">
<stop stop-color="#E33812"/>
<stop offset="1" stop-color="#F8B815" stop-opacity="0.33"/>
</linearGradient>
<linearGradient id="paint5_linear_7_2" x1="442.145" y1="526" x2="376.451" y2="700.94" gradientUnits="userSpaceOnUse">
<stop stop-color="#DBF923"/>
<stop offset="1" stop-color="#B8F33A" stop-opacity="0"/>
</linearGradient>
<linearGradient id="paint6_linear_7_2" x1="537.75" y1="526" x2="508.519" y2="678.456" gradientUnits="userSpaceOnUse">
<stop stop-color="#3C8393"/>
<stop offset="1" stop-color="#BC4C45" stop-opacity="0"/>
</linearGradient>
<linearGradient id="paint7_linear_7_2" x1="645.08" y1="526" x2="577.656" y2="649.101" gradientUnits="userSpaceOnUse">
<stop stop-color="#8CEC40"/>
<stop offset="0.868421" stop-color="#DBF536" stop-opacity="0"/>
</linearGradient>
<radialGradient id="paint8_radial_7_2" cx="0" cy="0" r="1" gradientUnits="userSpaceOnUse" gradientTransform="translate(47.0968 560.5) rotate(107.388) scale(87.5259 114.545)">
<stop stop-color="#CE25BD"/>
<stop offset="1" stop-color="#401C1C" stop-opacity="0"/>
</radialGradient>
<radialGradient id="paint9_radial_7_2" cx="0" cy="0" r="1" gradientUnits="userSpaceOnUse" gradientTransform="translate(139.996 585.013) rotate(13.452) scale(93.6652 148.764)">
<stop stop-color="#CD1E1E"/>
<stop offset="1" stop-color="#29D3C9" stop-opacity="0"/>
</radialGradient>
<linearGradient id="paint10_linear_7_2" x1="243.719" y1="526" x2="264.73" y2="645.795" gradientUnits="userSpaceOnUse">
<stop stop-color="#2BABBC"/>
<stop offset="1" stop-color="#36A60F" stop-opacity="0"/>
</linearGradient>
<linearGradient id="paint11_linear_7_2" x1="333.01" y1="526" x2="319.304" y2="644.914" gradientUnits="userSpaceOnUse">
<stop stop-color="#E33812"/>
<stop offset="1" stop-color="#F8B815" stop-opacity="0.33"/>
</linearGradient>
<linearGradient id="paint12_linear_7_2" x1="442.145" y1="526" x2="376.451" y2="700.94" gradientUnits="userSpaceOnUse">
<stop stop-color="#DBF923"/>
<stop offset="1" stop-color="#B8F33A" stop-opacity="0"/>
</linearGradient>
<linearGradient id="paint13_linear_7_2" x1="537.75" y1="526" x2="508.519" y2="678.456" gradientUnits="userSpaceOnUse">
<stop stop-color="#3C8393"/>
<stop offset="1" stop-color="#BC4C45" stop-opacity="0"/>
</linearGradient>
<linearGradient id="paint14_linear_7_2" x1="645.08" y1="526" x2="577.656" y2="649.101" gradientUnits="userSpaceOnUse">
<stop stop-color="#8CEC40"/>
<stop offset="0.868421" stop-color="#DBF536" stop-opacity="0"/>
</linearGradient>
<radialGradient id="paint15_radial_7_2" cx="0" cy="0" r="1" gradientUnits="userSpaceOnUse" gradientTransform="translate(130 82) rotate(107.496) scale(96.4624 126.924)">
<stop stop-color="#CE25BD"/>
<stop offset="1" stop-color="#401C1C" stop-opacity="0"/>
</radialGradient>
<radialGradient id="paint16_radial_7_2" cx="0" cy="0" r="1" gradientUnits="userSpaceOnUse" gradientTransform="translate(173 289) rotate(13.3669) scale(103.812 163.914)">
<stop stop-color="#CD1E1E"/>
<stop offset="1" stop-color="#29D3C9" stop-opacity="0"/>
</radialGradient>
<linearGradient id="paint17_linear_7_2" x1="180" y1="378" x2="203" y2="510" gradientUnits="userSpaceOnUse">
<stop stop-color="#2BABBC"/>
<stop offset="1" stop-color="#36A60F" stop-opacity="0"/>
</linearGradient>
<linearGradient id="paint18_linear_7_2" x1="413" y1="288" x2="398" y2="419" gradientUnits="userSpaceOnUse">
<stop stop-color="#E33812"/>
<stop offset="1" stop-color="#F8B815" stop-opacity="0.33"/>
</linearGradient>
<linearGradient id="paint19_linear_7_2" x1="396" y1="96" x2="324" y2="289" gradientUnits="userSpaceOnUse">
<stop stop-color="#DBF923"/>
<stop offset="1" stop-color="#B8F33A" stop-opacity="0"/>
</linearGradient>
<linearGradient id="paint20_linear_7_2" x1="584" y1="340" x2="552" y2="508" gradientUnits="userSpaceOnUse">
<stop stop-color="#3C8393"/>
<stop offset="1" stop-color="#BC4C45" stop-opacity="0"/>
</linearGradient>
<linearGradient id="paint21_linear_7_2" x1="598" y1="73" x2="524" y2="209" gradientUnits="userSpaceOnUse">
<stop stop-color="#8CEC40"/>
<stop offset="0.868421" stop-color="#DBF536" stop-opacity="0"/>
</linearGradient>
</defs>
</svg>
