<svg width="198" height="211" class="poly" viewBox="0 0 198 211" fill="none" xmlns="http://www.w3.org/2000/svg">
<g>
<g id="Group">
<g id="g3929">
<g id="g3889">
<path id="path3891" fill-rule="evenodd" clip-rule="evenodd" d="M40.3026 140.645C52.6201 125.066 75.0058 121.55 90.3027 132.792C105.599 144.033 108.015 165.776 95.6974 181.355C83.3799 196.934 60.9942 200.45 45.6974 189.208C30.4005 177.967 27.9852 156.224 40.3026 140.645Z" fill="url(#paint0_linear_106_39)" stroke="black" stroke-width="2.35317" stroke-linecap="round"/>
<path id="path3893" fill-rule="evenodd" clip-rule="evenodd" d="M35.6689 160.182C35.6144 172.158 40.9752 183.802 52.3316 187.913C51.256 184.786 53.2473 179.843 53.2631 176.358C53.3471 157.917 69.8752 142.446 90.1443 141.836C91.4324 141.797 92.6975 141.813 93.9511 141.894C88.2129 134.503 78.636 129.82 67.7551 130.148C50.1135 130.679 35.742 144.131 35.6689 160.182Z" fill="url(#paint1_linear_106_39)"/>
</g>
</g>
</g>
<g id="Group_2">
<g id="g3929_2">
<g id="g3889_2">
<path id="path3891_2" fill-rule="evenodd" clip-rule="evenodd" d="M109.303 140.645C121.62 125.066 144.006 121.55 159.303 132.792C174.599 144.033 177.015 165.776 164.697 181.355C152.38 196.934 129.994 200.45 114.697 189.208C99.4005 177.967 96.9852 156.224 109.303 140.645Z" fill="url(#paint2_linear_106_39)" stroke="black" stroke-width="2.35317" stroke-linecap="round"/>
<path id="path3893_2" fill-rule="evenodd" clip-rule="evenodd" d="M104.669 160.182C104.614 172.158 109.975 183.802 121.332 187.913C120.256 184.786 122.247 179.843 122.263 176.358C122.347 157.917 138.875 142.446 159.144 141.836C160.432 141.797 161.698 141.813 162.951 141.894C157.213 134.503 147.636 129.82 136.755 130.148C119.113 130.679 104.742 144.131 104.669 160.182Z" fill="url(#paint3_linear_106_39)"/>
</g>
</g>
</g>
<g id="Group_3">
<g id="g3929_3">
<g id="g3889_3">
<path id="path3891_3" fill-rule="evenodd" clip-rule="evenodd" d="M104.763 78.574C119.544 59.8791 146.407 55.6599 164.763 69.15C183.119 82.6401 186.018 108.731 171.237 127.426C156.456 146.121 129.593 150.34 111.237 136.85C92.8806 123.36 89.9823 97.2689 104.763 78.574Z" fill="url(#paint4_linear_106_39)" stroke="black" stroke-width="2.35317" stroke-linecap="round"/>
<path id="path3893_3" fill-rule="evenodd" clip-rule="evenodd" d="M99.2027 102.018C99.1373 116.39 105.57 130.363 119.198 135.296C117.907 131.544 120.297 125.612 120.316 121.429C120.417 99.3003 140.25 80.7353 164.573 80.0032C166.119 79.9567 167.637 79.9761 169.141 80.0724C162.256 71.2041 150.763 65.5845 137.706 65.9775C116.536 66.6147 99.2904 82.7572 99.2027 102.018Z" fill="url(#paint5_linear_106_39)"/>
</g>
</g>
</g>
<g id="Group_4">
<g id="g3929_4">
<g id="g3889_4">
<path id="path3891_4" fill-rule="evenodd" clip-rule="evenodd" d="M26.7632 78.574C41.5441 59.8791 68.407 55.6599 86.7632 69.15C105.119 82.6401 108.018 108.731 93.2368 127.426C78.4559 146.121 51.593 150.34 33.2368 136.85C14.8806 123.36 11.9823 97.2689 26.7632 78.574Z" fill="url(#paint6_linear_106_39)" stroke="black" stroke-width="2.35317" stroke-linecap="round"/>
<path id="path3893_4" fill-rule="evenodd" clip-rule="evenodd" d="M21.2027 102.018C21.1373 116.39 27.5703 130.363 41.1979 135.296C39.9072 131.544 42.2967 125.612 42.3158 121.429C42.4165 99.3003 62.2502 80.7353 86.5732 80.0032C88.1189 79.9567 89.6371 79.9761 91.1413 80.0724C84.2555 71.2041 72.7632 65.5845 59.7061 65.9775C38.5362 66.6147 21.2904 82.7572 21.2027 102.018Z" fill="url(#paint7_linear_106_39)"/>
</g>
</g>
</g>
<g id="Group_5">
<g id="g3929_5">
<g id="g3889_5">
<path id="path3891_5" fill-rule="evenodd" clip-rule="evenodd" d="M61.3244 24.8923C76.9675 11.8059 105.397 8.85245 124.824 18.2955C144.251 27.7386 147.319 46.0024 131.676 59.0888C116.033 72.1752 87.6026 75.1287 68.1756 65.6856C48.7487 56.2425 45.6812 37.9788 61.3244 24.8923Z" fill="url(#paint8_linear_106_39)" stroke="black" stroke-width="2.35317" stroke-linecap="round"/>
<path id="path3893_5" fill-rule="evenodd" clip-rule="evenodd" d="M55.4395 41.303C55.3703 51.3635 62.1786 61.1443 76.6011 64.5975C75.2351 61.971 77.764 57.8189 77.7842 54.8912C77.8908 39.4007 98.8815 26.4053 124.623 25.8928C126.259 25.8602 127.866 25.8738 129.458 25.9413C122.17 19.7334 110.008 15.7997 96.189 16.0748C73.7841 16.5208 55.5324 27.8206 55.4395 41.303Z" fill="url(#paint9_linear_106_39)"/>
</g>
</g>
</g>
</g>
<defs>
<linearGradient id="paint0_linear_106_39" x1="118.038" y1="198.653" x2="49.0502" y2="146.365" gradientUnits="userSpaceOnUse">
<stop stop-color="#43F716"/>
<stop offset="1" stop-color="#5ABC1E"/>
</linearGradient>
<linearGradient id="paint1_linear_106_39" x1="35.8013" y1="131.11" x2="72.2191" y2="165.389" gradientUnits="userSpaceOnUse">
<stop stop-color="#E2D7D5"/>
<stop offset="1" stop-color="#E2D7D5" stop-opacity="0"/>
</linearGradient>
<linearGradient id="paint2_linear_106_39" x1="187.038" y1="198.653" x2="118.05" y2="146.365" gradientUnits="userSpaceOnUse">
<stop stop-color="#43F716"/>
<stop offset="1" stop-color="#5ABC1E"/>
</linearGradient>
<linearGradient id="paint3_linear_106_39" x1="104.801" y1="131.11" x2="141.219" y2="165.389" gradientUnits="userSpaceOnUse">
<stop stop-color="#E2D7D5"/>
<stop offset="1" stop-color="#E2D7D5" stop-opacity="0"/>
</linearGradient>
<linearGradient id="paint4_linear_106_39" x1="198.046" y1="148.183" x2="115.26" y2="85.4378" gradientUnits="userSpaceOnUse">
<stop stop-color="#43F716"/>
<stop offset="1" stop-color="#5ABC1E"/>
</linearGradient>
<linearGradient id="paint5_linear_106_39" x1="99.3615" y1="67.1316" x2="143.063" y2="108.267" gradientUnits="userSpaceOnUse">
<stop stop-color="#E2D7D5"/>
<stop offset="1" stop-color="#E2D7D5" stop-opacity="0"/>
</linearGradient>
<linearGradient id="paint6_linear_106_39" x1="120.046" y1="148.183" x2="37.2602" y2="85.4378" gradientUnits="userSpaceOnUse">
<stop stop-color="#43F716"/>
<stop offset="1" stop-color="#5ABC1E"/>
</linearGradient>
<linearGradient id="paint7_linear_106_39" x1="21.3615" y1="67.1316" x2="65.0629" y2="108.267" gradientUnits="userSpaceOnUse">
<stop stop-color="#E2D7D5"/>
<stop offset="1" stop-color="#E2D7D5" stop-opacity="0"/>
</linearGradient>
<linearGradient id="paint8_linear_106_39" x1="160.048" y1="73.6189" x2="100.412" y2="5.28105" gradientUnits="userSpaceOnUse">
<stop stop-color="#43F716"/>
<stop offset="1" stop-color="#5ABC1E"/>
</linearGradient>
<linearGradient id="paint9_linear_106_39" x1="55.6076" y1="16.8827" x2="84.4408" y2="57.9164" gradientUnits="userSpaceOnUse">
<stop stop-color="#E2D7D5"/>
<stop offset="1" stop-color="#E2D7D5" stop-opacity="0"/>
</linearGradient>
</defs>
</svg>
