<svg width="121" height="76" viewBox="0 0 121 76" fill="none" xmlns="http://www.w3.org/2000/svg">
<rect x="1" width="119" height="76" rx="10" fill="black"/>
<rect x="1" y="1" width="118" height="74" rx="9" fill="url(#paint0_linear_8_68)" stroke="black" stroke-width="2"/>
<path d="M27.4062 47V25.1818H33.3295V42.2273H42.1506V47H27.4062ZM49.1898 47.2557C48.1458 47.2557 47.2225 47.0852 46.4199 46.7443C45.6245 46.3963 44.9995 45.8707 44.5449 45.1676C44.0904 44.4645 43.8631 43.5696 43.8631 42.483C43.8631 41.5881 44.0158 40.8246 44.3212 40.1925C44.6266 39.5533 45.0527 39.0312 45.5996 38.6264C46.1465 38.2216 46.7821 37.9126 47.5066 37.6996C48.2381 37.4865 49.0265 37.348 49.8716 37.2841C50.7878 37.2131 51.5229 37.1278 52.0769 37.0284C52.638 36.9219 53.0428 36.7763 53.2914 36.5916C53.54 36.3999 53.6642 36.1477 53.6642 35.8352V35.7926C53.6642 35.3665 53.5009 35.0398 53.1742 34.8125C52.8475 34.5852 52.4284 34.4716 51.9171 34.4716C51.356 34.4716 50.8979 34.5959 50.5428 34.8445C50.1948 35.0859 49.9853 35.4588 49.9142 35.9631H44.5023C44.5733 34.9687 44.8894 34.0526 45.4505 33.2145C46.0186 32.3693 46.8461 31.6946 47.9327 31.1903C49.0194 30.679 50.3759 30.4233 52.0023 30.4233C53.1742 30.4233 54.2253 30.5618 55.1557 30.8388C56.0861 31.1087 56.878 31.4886 57.5314 31.9787C58.1848 32.4616 58.682 33.0298 59.0229 33.6832C59.3709 34.3295 59.5449 35.0327 59.5449 35.7926V47H54.0478V44.6989H53.9199C53.5932 45.3097 53.1955 45.8033 52.7267 46.1797C52.2651 46.5561 51.736 46.8295 51.1394 47C50.5499 47.1705 49.9 47.2557 49.1898 47.2557ZM51.1074 43.5483C51.5549 43.5483 51.9739 43.456 52.3645 43.2713C52.7623 43.0866 53.0854 42.8203 53.334 42.4723C53.5826 42.1243 53.7069 41.7017 53.7069 41.2045V39.8409C53.5506 39.9048 53.3837 39.9652 53.2061 40.022C53.0357 40.0788 52.851 40.1321 52.6522 40.1818C52.4604 40.2315 52.2544 40.2777 52.0343 40.3203C51.8212 40.3629 51.5975 40.402 51.3631 40.4375C50.9086 40.5085 50.5357 40.6257 50.2445 40.7891C49.9604 40.9453 49.7473 41.1406 49.6053 41.375C49.4703 41.6023 49.4029 41.858 49.4029 42.142C49.4029 42.5966 49.5627 42.9446 49.8823 43.1861C50.2019 43.4276 50.6103 43.5483 51.1074 43.5483ZM70.2383 47.2983C68.4627 47.2983 66.9428 46.9467 65.6786 46.2436C64.4144 45.5334 63.445 44.5462 62.7702 43.282C62.0955 42.0107 61.7582 40.5369 61.7582 38.8608C61.7582 37.1847 62.0955 35.7145 62.7702 34.4503C63.445 33.179 64.4144 32.1918 65.6786 31.4886C66.9428 30.7784 68.4627 30.4233 70.2383 30.4233C71.8434 30.4233 73.2319 30.7145 74.4038 31.2969C75.5827 31.8722 76.4954 32.6889 77.1417 33.7472C77.788 34.7983 78.1147 36.0341 78.1218 37.4545H72.6673C72.5891 36.5952 72.3406 35.9418 71.9215 35.4943C71.5096 35.0398 70.9769 34.8125 70.3235 34.8125C69.8121 34.8125 69.3647 34.9616 68.9812 35.2599C68.5977 35.5511 68.2994 35.995 68.0863 36.5916C67.8732 37.1811 67.7667 37.9233 67.7667 38.8182C67.7667 39.7131 67.8732 40.4588 68.0863 41.0554C68.2994 41.6449 68.5977 42.0888 68.9812 42.3871C69.3647 42.6783 69.8121 42.8239 70.3235 42.8239C70.7567 42.8239 71.1403 42.7244 71.4741 42.5256C71.8079 42.3196 72.0778 42.0213 72.2837 41.6307C72.4968 41.233 72.6246 40.75 72.6673 40.1818H78.1218C78.1005 41.6236 77.7702 42.8807 77.131 43.9531C76.4918 45.0185 75.5863 45.8423 74.4144 46.4247C73.2496 47.0071 71.8576 47.2983 70.2383 47.2983ZM85.5446 25.1818H92.1497L96.411 34.0455H96.5815L100.843 25.1818H107.448L99.4366 40.1392V47H93.5559V40.1392L85.5446 25.1818Z" fill="white"/>
<defs>
<linearGradient id="paint0_linear_8_68" x1="60" y1="-7.52901e-07" x2="28" y2="168" gradientUnits="userSpaceOnUse">
<stop stop-color="#3C8393"/>
<stop offset="1" stop-color="#BC4C45" stop-opacity="0"/>
</linearGradient>
</defs>
</svg>
