<svg width="120" height="76" viewBox="0 0 120 76" fill="none" xmlns="http://www.w3.org/2000/svg">
<rect width="119" height="76" rx="10" fill="black"/>
<rect x="1" y="1" width="118" height="74" rx="9" fill="url(#paint0_radial_8_52)" stroke="black" stroke-width="2"/>
<path d="M30.4062 47V25.1818H36.3295V42.2273H45.1506V47H30.4062ZM52.1898 47.2557C51.1458 47.2557 50.2225 47.0852 49.4199 46.7443C48.6245 46.3963 47.9995 45.8707 47.5449 45.1676C47.0904 44.4645 46.8631 43.5696 46.8631 42.483C46.8631 41.5881 47.0158 40.8246 47.3212 40.1925C47.6266 39.5533 48.0527 39.0312 48.5996 38.6264C49.1465 38.2216 49.7821 37.9126 50.5066 37.6996C51.2381 37.4865 52.0265 37.348 52.8716 37.2841C53.7878 37.2131 54.5229 37.1278 55.0769 37.0284C55.638 36.9219 56.0428 36.7763 56.2914 36.5916C56.54 36.3999 56.6642 36.1477 56.6642 35.8352V35.7926C56.6642 35.3665 56.5009 35.0398 56.1742 34.8125C55.8475 34.5852 55.4284 34.4716 54.9171 34.4716C54.356 34.4716 53.8979 34.5959 53.5428 34.8445C53.1948 35.0859 52.9853 35.4588 52.9142 35.9631H47.5023C47.5733 34.9687 47.8894 34.0526 48.4505 33.2145C49.0186 32.3693 49.8461 31.6946 50.9327 31.1903C52.0194 30.679 53.3759 30.4233 55.0023 30.4233C56.1742 30.4233 57.2253 30.5618 58.1557 30.8388C59.0861 31.1087 59.878 31.4886 60.5314 31.9787C61.1848 32.4616 61.682 33.0298 62.0229 33.6832C62.3709 34.3295 62.5449 35.0327 62.5449 35.7926V47H57.0478V44.6989H56.9199C56.5932 45.3097 56.1955 45.8033 55.7267 46.1797C55.2651 46.5561 54.736 46.8295 54.1394 47C53.5499 47.1705 52.9 47.2557 52.1898 47.2557ZM54.1074 43.5483C54.5549 43.5483 54.9739 43.456 55.3645 43.2713C55.7623 43.0866 56.0854 42.8203 56.334 42.4723C56.5826 42.1243 56.7069 41.7017 56.7069 41.2045V39.8409C56.5506 39.9048 56.3837 39.9652 56.2061 40.022C56.0357 40.0788 55.851 40.1321 55.6522 40.1818C55.4604 40.2315 55.2544 40.2777 55.0343 40.3203C54.8212 40.3629 54.5975 40.402 54.3631 40.4375C53.9086 40.5085 53.5357 40.6257 53.2445 40.7891C52.9604 40.9453 52.7473 41.1406 52.6053 41.375C52.4703 41.6023 52.4029 41.858 52.4029 42.142C52.4029 42.5966 52.5627 42.9446 52.8823 43.1861C53.2019 43.4276 53.6103 43.5483 54.1074 43.5483ZM73.2383 47.2983C71.4627 47.2983 69.9428 46.9467 68.6786 46.2436C67.4144 45.5334 66.445 44.5462 65.7702 43.282C65.0955 42.0107 64.7582 40.5369 64.7582 38.8608C64.7582 37.1847 65.0955 35.7145 65.7702 34.4503C66.445 33.179 67.4144 32.1918 68.6786 31.4886C69.9428 30.7784 71.4627 30.4233 73.2383 30.4233C74.8434 30.4233 76.2319 30.7145 77.4038 31.2969C78.5827 31.8722 79.4954 32.6889 80.1417 33.7472C80.788 34.7983 81.1147 36.0341 81.1218 37.4545H75.6673C75.5891 36.5952 75.3406 35.9418 74.9215 35.4943C74.5096 35.0398 73.9769 34.8125 73.3235 34.8125C72.8121 34.8125 72.3647 34.9616 71.9812 35.2599C71.5977 35.5511 71.2994 35.995 71.0863 36.5916C70.8732 37.1811 70.7667 37.9233 70.7667 38.8182C70.7667 39.7131 70.8732 40.4588 71.0863 41.0554C71.2994 41.6449 71.5977 42.0888 71.9812 42.3871C72.3647 42.6783 72.8121 42.8239 73.3235 42.8239C73.7567 42.8239 74.1403 42.7244 74.4741 42.5256C74.8079 42.3196 75.0778 42.0213 75.2837 41.6307C75.4968 41.233 75.6246 40.75 75.6673 40.1818H81.1218C81.1005 41.6236 80.7702 42.8807 80.131 43.9531C79.4918 45.0185 78.5863 45.8423 77.4144 46.4247C76.2496 47.0071 74.8576 47.2983 73.2383 47.2983ZM95.3627 25.1818V47H89.4395V25.1818H95.3627Z" fill="white"/>
<defs>
<radialGradient id="paint0_radial_8_52" cx="0" cy="0" r="1" gradientUnits="userSpaceOnUse" gradientTransform="translate(54 65) rotate(13.3669) scale(103.812 163.914)">
<stop stop-color="#CD1E1E"/>
<stop offset="1" stop-color="#29D3C9" stop-opacity="0"/>
</radialGradient>
</defs>
</svg>
