<svg width="122" height="76" viewBox="0 0 122 76" fill="none" xmlns="http://www.w3.org/2000/svg">
<rect width="120" height="76" rx="10" fill="black"/>
<rect x="1" y="1" width="118" height="74" rx="9" fill="url(#paint0_linear_8_72)" stroke="black" stroke-width="2"/>
<path d="M28.4062 47V25.1818H34.3295V42.2273H43.1506V47H28.4062ZM50.1898 47.2557C49.1458 47.2557 48.2225 47.0852 47.4199 46.7443C46.6245 46.3963 45.9995 45.8707 45.5449 45.1676C45.0904 44.4645 44.8631 43.5696 44.8631 42.483C44.8631 41.5881 45.0158 40.8246 45.3212 40.1925C45.6266 39.5533 46.0527 39.0312 46.5996 38.6264C47.1465 38.2216 47.7821 37.9126 48.5066 37.6996C49.2381 37.4865 50.0265 37.348 50.8716 37.2841C51.7878 37.2131 52.5229 37.1278 53.0769 37.0284C53.638 36.9219 54.0428 36.7763 54.2914 36.5916C54.54 36.3999 54.6642 36.1477 54.6642 35.8352V35.7926C54.6642 35.3665 54.5009 35.0398 54.1742 34.8125C53.8475 34.5852 53.4284 34.4716 52.9171 34.4716C52.356 34.4716 51.8979 34.5959 51.5428 34.8445C51.1948 35.0859 50.9853 35.4588 50.9142 35.9631H45.5023C45.5733 34.9687 45.8894 34.0526 46.4505 33.2145C47.0186 32.3693 47.8461 31.6946 48.9327 31.1903C50.0194 30.679 51.3759 30.4233 53.0023 30.4233C54.1742 30.4233 55.2253 30.5618 56.1557 30.8388C57.0861 31.1087 57.878 31.4886 58.5314 31.9787C59.1848 32.4616 59.682 33.0298 60.0229 33.6832C60.3709 34.3295 60.5449 35.0327 60.5449 35.7926V47H55.0478V44.6989H54.9199C54.5932 45.3097 54.1955 45.8033 53.7267 46.1797C53.2651 46.5561 52.736 46.8295 52.1394 47C51.5499 47.1705 50.9 47.2557 50.1898 47.2557ZM52.1074 43.5483C52.5549 43.5483 52.9739 43.456 53.3645 43.2713C53.7623 43.0866 54.0854 42.8203 54.334 42.4723C54.5826 42.1243 54.7069 41.7017 54.7069 41.2045V39.8409C54.5506 39.9048 54.3837 39.9652 54.2061 40.022C54.0357 40.0788 53.851 40.1321 53.6522 40.1818C53.4604 40.2315 53.2544 40.2777 53.0343 40.3203C52.8212 40.3629 52.5975 40.402 52.3631 40.4375C51.9086 40.5085 51.5357 40.6257 51.2445 40.7891C50.9604 40.9453 50.7473 41.1406 50.6053 41.375C50.4703 41.6023 50.4029 41.858 50.4029 42.142C50.4029 42.5966 50.5627 42.9446 50.8823 43.1861C51.2019 43.4276 51.6103 43.5483 52.1074 43.5483ZM71.2383 47.2983C69.4627 47.2983 67.9428 46.9467 66.6786 46.2436C65.4144 45.5334 64.445 44.5462 63.7702 43.282C63.0955 42.0107 62.7582 40.5369 62.7582 38.8608C62.7582 37.1847 63.0955 35.7145 63.7702 34.4503C64.445 33.179 65.4144 32.1918 66.6786 31.4886C67.9428 30.7784 69.4627 30.4233 71.2383 30.4233C72.8434 30.4233 74.2319 30.7145 75.4038 31.2969C76.5827 31.8722 77.4954 32.6889 78.1417 33.7472C78.788 34.7983 79.1147 36.0341 79.1218 37.4545H73.6673C73.5891 36.5952 73.3406 35.9418 72.9215 35.4943C72.5096 35.0398 71.9769 34.8125 71.3235 34.8125C70.8121 34.8125 70.3647 34.9616 69.9812 35.2599C69.5977 35.5511 69.2994 35.995 69.0863 36.5916C68.8732 37.1811 68.7667 37.9233 68.7667 38.8182C68.7667 39.7131 68.8732 40.4588 69.0863 41.0554C69.2994 41.6449 69.5977 42.0888 69.9812 42.3871C70.3647 42.6783 70.8121 42.8239 71.3235 42.8239C71.7567 42.8239 72.1403 42.7244 72.4741 42.5256C72.8079 42.3196 73.0778 42.0213 73.2837 41.6307C73.4968 41.233 73.6246 40.75 73.6673 40.1818H79.1218C79.1005 41.6236 78.7702 42.8807 78.131 43.9531C77.4918 45.0185 76.5863 45.8423 75.4144 46.4247C74.2496 47.0071 72.8576 47.2983 71.2383 47.2983ZM93.1071 47H86.715L93.9167 25.1818H102.013L109.215 47H102.823L98.0502 31.1903H97.8798L93.1071 47ZM91.9139 38.392H103.931V42.8239H91.9139V38.392Z" fill="white"/>
<defs>
<linearGradient id="paint0_linear_8_72" x1="60" y1="3.48217e-06" x2="-14" y2="136" gradientUnits="userSpaceOnUse">
<stop stop-color="#8CEC40"/>
<stop offset="0.868421" stop-color="#DBF536" stop-opacity="0"/>
</linearGradient>
</defs>
</svg>
