<svg width="100" height="76" viewBox="0 0 100 76" fill="none" xmlns="http://www.w3.org/2000/svg">
<rect width="99" height="76" rx="10" fill="black"/>
<rect x="1" y="1" width="98" height="74" rx="9" fill="url(#paint0_linear_8_60)" stroke="black" stroke-width="2"/>
<path d="M62.5426 36.0909C62.5426 38.5199 62.0703 40.5689 61.1257 42.2379C60.1811 43.8999 58.9063 45.1605 57.3011 46.0199C55.696 46.8722 53.9063 47.2983 51.9318 47.2983C49.9432 47.2983 48.1463 46.8686 46.5412 46.0092C44.9432 45.1428 43.6719 43.8786 42.7273 42.2166C41.7898 40.5476 41.321 38.5057 41.321 36.0909C41.321 33.6619 41.7898 31.6165 42.7273 29.9545C43.6719 28.2855 44.9432 27.0249 46.5412 26.1726C48.1463 25.3132 49.9432 24.8835 51.9318 24.8835C53.9063 24.8835 55.696 25.3132 57.3011 26.1726C58.9063 27.0249 60.1811 28.2855 61.1257 29.9545C62.0703 31.6165 62.5426 33.6619 62.5426 36.0909ZM56.4489 36.0909C56.4489 34.7841 56.2749 33.6832 55.9268 32.7884C55.5859 31.8864 55.0781 31.2045 54.4034 30.7429C53.7358 30.2741 52.9119 30.0398 51.9318 30.0398C50.9517 30.0398 50.1243 30.2741 49.4496 30.7429C48.782 31.2045 48.2741 31.8864 47.9261 32.7884C47.5852 33.6832 47.4148 34.7841 47.4148 36.0909C47.4148 37.3977 47.5852 38.5021 47.9261 39.4041C48.2741 40.299 48.782 40.9808 49.4496 41.4496C50.1243 41.9112 50.9517 42.142 51.9318 42.142C52.9119 42.142 53.7358 41.9112 54.4034 41.4496C55.0781 40.9808 55.5859 40.299 55.9268 39.4041C56.2749 38.5021 56.4489 37.3977 56.4489 36.0909Z" fill="white"/>
<defs>
<linearGradient id="paint0_linear_8_60" x1="50" y1="5.88204e-07" x2="35" y2="131" gradientUnits="userSpaceOnUse">
<stop stop-color="#E33812"/>
<stop offset="1" stop-color="#F8B815" stop-opacity="0.33"/>
</linearGradient>
</defs>
</svg>
