<svg width="100" height="76" viewBox="0 0 100 76" fill="none" xmlns="http://www.w3.org/2000/svg">
<rect width="99" height="76" rx="10" fill="black"/>
<rect x="1" y="1" width="98" height="74" rx="9" fill="url(#paint0_linear_8_56)" stroke="black" stroke-width="2"/>
<path d="M28.4062 45V23.1818H37.8239C39.4432 23.1818 40.8601 23.5014 42.0746 24.1406C43.2891 24.7798 44.2337 25.6783 44.9084 26.8359C45.5831 27.9936 45.9205 29.3466 45.9205 30.8949C45.9205 32.4574 45.5724 33.8104 44.8764 34.9538C44.1875 36.0973 43.218 36.978 41.968 37.5959C40.7251 38.2138 39.2727 38.5227 37.6108 38.5227H31.9858V33.9205H36.4176C37.1136 33.9205 37.7067 33.7997 38.1967 33.5582C38.6939 33.3097 39.0739 32.9581 39.3366 32.5036C39.6065 32.049 39.7415 31.5128 39.7415 30.8949C39.7415 30.2699 39.6065 29.7372 39.3366 29.2969C39.0739 28.8494 38.6939 28.5085 38.1967 28.2741C37.7067 28.0327 37.1136 27.9119 36.4176 27.9119H34.3295V45H28.4062ZM51.5028 34.2188V48.75H47.625V34.2188H51.5028ZM56.6911 48.9631C55.9524 48.9631 55.2955 48.8388 54.7202 48.5902C54.152 48.3487 53.7045 47.9794 53.3778 47.4822C53.0582 46.9922 52.8984 46.3778 52.8984 45.6392C52.8984 44.9219 53.0334 44.343 53.3033 43.9027C53.5803 43.4624 53.9283 43.125 54.3473 42.8906C54.7734 42.6491 55.2209 42.4787 55.6896 42.3793C56.1655 42.2798 56.5987 42.2159 56.9893 42.1875C57.6996 42.1165 58.2358 42.0561 58.598 42.0064C58.9673 41.9567 59.2159 41.8821 59.3438 41.7827C59.4787 41.6832 59.5462 41.5199 59.5462 41.2926V41.5483C59.5462 41.25 59.468 41.0121 59.3118 40.8345C59.1555 40.657 58.8643 40.5682 58.4382 40.5682C57.9055 40.5682 57.5256 40.6854 57.2983 40.9197C57.071 41.1541 56.9254 41.3778 56.8615 41.5909L53.282 41.25C53.5376 40.1207 54.1129 39.2507 55.0078 38.6399C55.9098 38.022 57.0533 37.7131 58.4382 37.7131C59.1911 37.7131 59.951 37.8267 60.718 38.054C61.4851 38.2741 62.1278 38.6719 62.6463 39.2472C63.1648 39.8153 63.424 40.625 63.424 41.6761V48.75H59.7592V47.5568H59.674C59.4609 47.919 59.1165 48.2422 58.6406 48.5263C58.1719 48.8175 57.522 48.9631 56.6911 48.9631ZM57.799 46.2784C58.1825 46.2784 58.5057 46.2216 58.7685 46.108C59.0384 45.9943 59.2408 45.8523 59.3757 45.6818C59.5178 45.5114 59.5888 45.3409 59.5888 45.1705V44.1477C59.4893 44.2187 59.3047 44.2827 59.0348 44.3395C58.772 44.3892 58.4986 44.4354 58.2145 44.478C57.9375 44.5135 57.728 44.5455 57.5859 44.5739C57.4794 44.5952 57.2876 44.6733 57.0107 44.8082C56.7408 44.9432 56.6058 45.1918 56.6058 45.554C56.6058 45.831 56.7195 46.0192 56.9467 46.1186C57.174 46.2251 57.4581 46.2784 57.799 46.2784ZM70.4872 48.9631C69.294 48.9631 68.2784 48.7287 67.4403 48.2599C66.6023 47.7912 65.9631 47.1342 65.5227 46.2891C65.0824 45.4439 64.8622 44.4602 64.8622 43.3381C64.8622 42.2159 65.0824 41.2322 65.5227 40.3871C65.9702 39.5419 66.6094 38.8849 67.4403 38.4162C68.2784 37.9474 69.2798 37.7131 70.4446 37.7131C72.0639 37.7131 73.3281 38.125 74.2372 38.9489C75.1534 39.7727 75.6222 40.8239 75.6435 42.1023H72.0213C71.9361 41.6761 71.7763 41.3423 71.5419 41.1009C71.3146 40.8594 70.9773 40.7386 70.5298 40.7386C70.1605 40.7386 69.8445 40.8345 69.5817 41.0263C69.326 41.2109 69.1271 41.495 68.9851 41.8786C68.8501 42.255 68.7827 42.7273 68.7827 43.2955C68.7827 43.8778 68.8501 44.3608 68.9851 44.7443C69.1271 45.1278 69.326 45.4155 69.5817 45.6072C69.8445 45.799 70.1605 45.8949 70.5298 45.8949C70.956 45.8949 71.2862 45.7741 71.5206 45.5327C71.7621 45.2983 71.9148 44.9787 71.9787 44.5739H75.6435C75.6009 45.8736 75.125 46.9283 74.2159 47.7379C73.3068 48.5547 72.0639 48.9631 70.4872 48.9631Z" fill="white"/>
<defs>
<linearGradient id="paint0_linear_8_56" x1="50" y1="9.01912e-07" x2="73" y2="132" gradientUnits="userSpaceOnUse">
<stop stop-color="#2BABBC"/>
<stop offset="1" stop-color="#36A60F" stop-opacity="0"/>
</linearGradient>
</defs>
</svg>
