<svg width="100" height="76" viewBox="0 0 100 76" fill="none" xmlns="http://www.w3.org/2000/svg">
<rect width="99" height="76" rx="10" fill="black"/>
<rect x="1" y="1" width="98" height="74" rx="9" fill="url(#paint0_radial_8_48)" stroke="black" stroke-width="2"/>
<path d="M31.4062 45V23.1818H40.8239C42.4432 23.1818 43.8601 23.5014 45.0746 24.1406C46.2891 24.7798 47.2337 25.6783 47.9084 26.8359C48.5831 27.9936 48.9205 29.3466 48.9205 30.8949C48.9205 32.4574 48.5724 33.8104 47.8764 34.9538C47.1875 36.0973 46.218 36.978 44.968 37.5959C43.7251 38.2138 42.2727 38.5227 40.6108 38.5227H34.9858V33.9205H39.4176C40.1136 33.9205 40.7067 33.7997 41.1967 33.5582C41.6939 33.3097 42.0739 32.9581 42.3366 32.5036C42.6065 32.049 42.7415 31.5128 42.7415 30.8949C42.7415 30.2699 42.6065 29.7372 42.3366 29.2969C42.0739 28.8494 41.6939 28.5085 41.1967 28.2741C40.7067 28.0327 40.1136 27.9119 39.4176 27.9119H37.3295V45H31.4062ZM54.5028 34.2188V48.75H50.625V34.2188H54.5028Z" fill="white"/>
<defs>
<radialGradient id="paint0_radial_8_48" cx="0" cy="0" r="1" gradientUnits="userSpaceOnUse" gradientTransform="translate(50 38) rotate(107.496) scale(96.4624 126.924)">
<stop stop-color="#CE25BD"/>
<stop offset="1" stop-color="#401C1C" stop-opacity="0"/>
</radialGradient>
</defs>
</svg>
