<svg width="775" height="76" class="set1" viewBox="0 0 775 76" fill="none" xmlns="http://www.w3.org/2000/svg">
<g>
<g id="LacBasis">
<rect id="base" x="1" width="772" height="76" rx="10" fill="black"/>
<rect id="recP" x="1" y="1" width="98" height="74" rx="9" fill="url(#paint0_radial_8_76)" stroke="black" stroke-width="2"/>
<rect id="recLac" x="100" y="1" width="118" height="74" rx="9" fill="url(#paint1_radial_8_76)" stroke="black" stroke-width="2"/>
<rect id="recPLac" x="219" y="1" width="98" height="74" rx="9" fill="url(#paint2_linear_8_76)" stroke="black" stroke-width="2"/>
<rect id="recO" x="318" y="1" width="98" height="74" rx="9" fill="url(#paint3_linear_8_76)" stroke="black" stroke-width="2"/>
<rect id="recLacZ" x="417" y="1" width="118" height="74" rx="9" fill="url(#paint4_linear_8_76)" stroke="black" stroke-width="2"/>
<rect id="recLacY" x="535" y="1" width="118" height="74" rx="9" fill="url(#paint5_linear_8_76)" stroke="black" stroke-width="2"/>
<rect id="recLacA" x="654" y="1" width="118" height="74" rx="9" fill="url(#paint6_linear_8_76)" stroke="black" stroke-width="2"/>
</g>
<g id="recP1">
<rect id="bhlk" width="99" height="76" rx="10" fill="black"/>
<rect id="q" x="1" y="1" width="98" height="74" rx="9" fill="url(#paint7_radial_8_76)" stroke="black" stroke-width="2"/>
<path id="Pl" d="M31.4062 45V23.1818H40.8239C42.4432 23.1818 43.8601 23.5014 45.0746 24.1406C46.2891 24.7798 47.2337 25.6783 47.9084 26.8359C48.5831 27.9936 48.9205 29.3466 48.9205 30.8949C48.9205 32.4574 48.5724 33.8104 47.8764 34.9538C47.1875 36.0973 46.218 36.978 44.968 37.5959C43.7251 38.2138 42.2727 38.5227 40.6108 38.5227H34.9858V33.9205H39.4176C40.1136 33.9205 40.7067 33.7997 41.1967 33.5582C41.6939 33.3097 42.0739 32.9581 42.3366 32.5036C42.6065 32.049 42.7415 31.5128 42.7415 30.8949C42.7415 30.2699 42.6065 29.7372 42.3366 29.2969C42.0739 28.8494 41.6939 28.5085 41.1967 28.2741C40.7067 28.0327 40.1136 27.9119 39.4176 27.9119H37.3295V45H31.4062ZM54.5028 34.2188V48.75H50.625V34.2188H54.5028Z" fill="white"/>
</g>
<g id="recLac1">
<rect id="bhlk_2" x="99" width="119" height="76" rx="10" fill="black"/>
<rect id="dwegwr" x="100" y="1" width="118" height="74" rx="9" fill="url(#paint8_radial_8_76)" stroke="black" stroke-width="2"/>
<path id="Lac I" d="M129.406 47V25.1818H135.33V42.2273H144.151V47H129.406ZM151.19 47.2557C150.146 47.2557 149.222 47.0852 148.42 46.7443C147.624 46.3963 146.999 45.8707 146.545 45.1676C146.09 44.4645 145.863 43.5696 145.863 42.483C145.863 41.5881 146.016 40.8246 146.321 40.1925C146.627 39.5533 147.053 39.0312 147.6 38.6264C148.146 38.2216 148.782 37.9126 149.507 37.6996C150.238 37.4865 151.026 37.348 151.872 37.2841C152.788 37.2131 153.523 37.1278 154.077 37.0284C154.638 36.9219 155.043 36.7763 155.291 36.5916C155.54 36.3999 155.664 36.1477 155.664 35.8352V35.7926C155.664 35.3665 155.501 35.0398 155.174 34.8125C154.847 34.5852 154.428 34.4716 153.917 34.4716C153.356 34.4716 152.898 34.5959 152.543 34.8445C152.195 35.0859 151.985 35.4588 151.914 35.9631H146.502C146.573 34.9687 146.889 34.0526 147.45 33.2145C148.019 32.3693 148.846 31.6946 149.933 31.1903C151.019 30.679 152.376 30.4233 154.002 30.4233C155.174 30.4233 156.225 30.5618 157.156 30.8388C158.086 31.1087 158.878 31.4886 159.531 31.9787C160.185 32.4616 160.682 33.0298 161.023 33.6832C161.371 34.3295 161.545 35.0327 161.545 35.7926V47H156.048V44.6989H155.92C155.593 45.3097 155.195 45.8033 154.727 46.1797C154.265 46.5561 153.736 46.8295 153.139 47C152.55 47.1705 151.9 47.2557 151.19 47.2557ZM153.107 43.5483C153.555 43.5483 153.974 43.456 154.365 43.2713C154.762 43.0866 155.085 42.8203 155.334 42.4723C155.583 42.1243 155.707 41.7017 155.707 41.2045V39.8409C155.551 39.9048 155.384 39.9652 155.206 40.022C155.036 40.0788 154.851 40.1321 154.652 40.1818C154.46 40.2315 154.254 40.2777 154.034 40.3203C153.821 40.3629 153.597 40.402 153.363 40.4375C152.909 40.5085 152.536 40.6257 152.244 40.7891C151.96 40.9453 151.747 41.1406 151.605 41.375C151.47 41.6023 151.403 41.858 151.403 42.142C151.403 42.5966 151.563 42.9446 151.882 43.1861C152.202 43.4276 152.61 43.5483 153.107 43.5483ZM172.238 47.2983C170.463 47.2983 168.943 46.9467 167.679 46.2436C166.414 45.5334 165.445 44.5462 164.77 43.282C164.096 42.0107 163.758 40.5369 163.758 38.8608C163.758 37.1847 164.096 35.7145 164.77 34.4503C165.445 33.179 166.414 32.1918 167.679 31.4886C168.943 30.7784 170.463 30.4233 172.238 30.4233C173.843 30.4233 175.232 30.7145 176.404 31.2969C177.583 31.8722 178.495 32.6889 179.142 33.7472C179.788 34.7983 180.115 36.0341 180.122 37.4545H174.667C174.589 36.5952 174.341 35.9418 173.922 35.4943C173.51 35.0398 172.977 34.8125 172.324 34.8125C171.812 34.8125 171.365 34.9616 170.981 35.2599C170.598 35.5511 170.299 35.995 170.086 36.5916C169.873 37.1811 169.767 37.9233 169.767 38.8182C169.767 39.7131 169.873 40.4588 170.086 41.0554C170.299 41.6449 170.598 42.0888 170.981 42.3871C171.365 42.6783 171.812 42.8239 172.324 42.8239C172.757 42.8239 173.14 42.7244 173.474 42.5256C173.808 42.3196 174.078 42.0213 174.284 41.6307C174.497 41.233 174.625 40.75 174.667 40.1818H180.122C180.1 41.6236 179.77 42.8807 179.131 43.9531C178.492 45.0185 177.586 45.8423 176.414 46.4247C175.25 47.0071 173.858 47.2983 172.238 47.2983ZM194.363 25.1818V47H188.439V25.1818H194.363Z" fill="white"/>
</g>
<g id="recPLac1">
<rect id="bhlk_3" x="218" width="99" height="76" rx="10" fill="black"/>
<rect id="l;jdglksdfj" x="219" y="1" width="98" height="74" rx="9" fill="url(#paint9_linear_8_76)" stroke="black" stroke-width="2"/>
<path id="Plac" d="M246.406 45V23.1818H255.824C257.443 23.1818 258.86 23.5014 260.075 24.1406C261.289 24.7798 262.234 25.6783 262.908 26.8359C263.583 27.9936 263.92 29.3466 263.92 30.8949C263.92 32.4574 263.572 33.8104 262.876 34.9538C262.188 36.0973 261.218 36.978 259.968 37.5959C258.725 38.2138 257.273 38.5227 255.611 38.5227H249.986V33.9205H254.418C255.114 33.9205 255.707 33.7997 256.197 33.5582C256.694 33.3097 257.074 32.9581 257.337 32.5036C257.607 32.049 257.741 31.5128 257.741 30.8949C257.741 30.2699 257.607 29.7372 257.337 29.2969C257.074 28.8494 256.694 28.5085 256.197 28.2741C255.707 28.0327 255.114 27.9119 254.418 27.9119H252.33V45H246.406ZM269.503 34.2188V48.75H265.625V34.2188H269.503ZM274.691 48.9631C273.952 48.9631 273.295 48.8388 272.72 48.5902C272.152 48.3487 271.705 47.9794 271.378 47.4822C271.058 46.9922 270.898 46.3778 270.898 45.6392C270.898 44.9219 271.033 44.343 271.303 43.9027C271.58 43.4624 271.928 43.125 272.347 42.8906C272.773 42.6491 273.221 42.4787 273.69 42.3793C274.165 42.2798 274.599 42.2159 274.989 42.1875C275.7 42.1165 276.236 42.0561 276.598 42.0064C276.967 41.9567 277.216 41.8821 277.344 41.7827C277.479 41.6832 277.546 41.5199 277.546 41.2926V41.5483C277.546 41.25 277.468 41.0121 277.312 40.8345C277.156 40.657 276.864 40.5682 276.438 40.5682C275.906 40.5682 275.526 40.6854 275.298 40.9197C275.071 41.1541 274.925 41.3778 274.862 41.5909L271.282 41.25C271.538 40.1207 272.113 39.2507 273.008 38.6399C273.91 38.022 275.053 37.7131 276.438 37.7131C277.191 37.7131 277.951 37.8267 278.718 38.054C279.485 38.2741 280.128 38.6719 280.646 39.2472C281.165 39.8153 281.424 40.625 281.424 41.6761V48.75H277.759V47.5568H277.674C277.461 47.919 277.116 48.2422 276.641 48.5263C276.172 48.8175 275.522 48.9631 274.691 48.9631ZM275.799 46.2784C276.183 46.2784 276.506 46.2216 276.768 46.108C277.038 45.9943 277.241 45.8523 277.376 45.6818C277.518 45.5114 277.589 45.3409 277.589 45.1705V44.1477C277.489 44.2187 277.305 44.2827 277.035 44.3395C276.772 44.3892 276.499 44.4354 276.214 44.478C275.938 44.5135 275.728 44.5455 275.586 44.5739C275.479 44.5952 275.288 44.6733 275.011 44.8082C274.741 44.9432 274.606 45.1918 274.606 45.554C274.606 45.831 274.719 46.0192 274.947 46.1186C275.174 46.2251 275.458 46.2784 275.799 46.2784ZM288.487 48.9631C287.294 48.9631 286.278 48.7287 285.44 48.2599C284.602 47.7912 283.963 47.1342 283.523 46.2891C283.082 45.4439 282.862 44.4602 282.862 43.3381C282.862 42.2159 283.082 41.2322 283.523 40.3871C283.97 39.5419 284.609 38.8849 285.44 38.4162C286.278 37.9474 287.28 37.7131 288.445 37.7131C290.064 37.7131 291.328 38.125 292.237 38.9489C293.153 39.7727 293.622 40.8239 293.643 42.1023H290.021C289.936 41.6761 289.776 41.3423 289.542 41.1009C289.315 40.8594 288.977 40.7386 288.53 40.7386C288.161 40.7386 287.844 40.8345 287.582 41.0263C287.326 41.2109 287.127 41.495 286.985 41.8786C286.85 42.255 286.783 42.7273 286.783 43.2955C286.783 43.8778 286.85 44.3608 286.985 44.7443C287.127 45.1278 287.326 45.4155 287.582 45.6072C287.844 45.799 288.161 45.8949 288.53 45.8949C288.956 45.8949 289.286 45.7741 289.521 45.5327C289.762 45.2983 289.915 44.9787 289.979 44.5739H293.643C293.601 45.8736 293.125 46.9283 292.216 47.7379C291.307 48.5547 290.064 48.9631 288.487 48.9631Z" fill="white"/>
</g>
<g id="recO1">
<rect id="bhlk_4" x="317" width="99" height="76" rx="10" fill="black"/>
<rect id="lvcj" x="318" y="1" width="98" height="74" rx="9" fill="url(#paint10_linear_8_76)" stroke="black" stroke-width="2"/>
<path id="O" d="M379.543 36.0909C379.543 38.5199 379.07 40.5689 378.126 42.2379C377.181 43.8999 375.906 45.1605 374.301 46.0199C372.696 46.8722 370.906 47.2983 368.932 47.2983C366.943 47.2983 365.146 46.8686 363.541 46.0092C361.943 45.1428 360.672 43.8786 359.727 42.2166C358.79 40.5476 358.321 38.5057 358.321 36.0909C358.321 33.6619 358.79 31.6165 359.727 29.9545C360.672 28.2855 361.943 27.0249 363.541 26.1726C365.146 25.3132 366.943 24.8835 368.932 24.8835C370.906 24.8835 372.696 25.3132 374.301 26.1726C375.906 27.0249 377.181 28.2855 378.126 29.9545C379.07 31.6165 379.543 33.6619 379.543 36.0909ZM373.449 36.0909C373.449 34.7841 373.275 33.6832 372.927 32.7884C372.586 31.8864 372.078 31.2045 371.403 30.7429C370.736 30.2741 369.912 30.0398 368.932 30.0398C367.952 30.0398 367.124 30.2741 366.45 30.7429C365.782 31.2045 365.274 31.8864 364.926 32.7884C364.585 33.6832 364.415 34.7841 364.415 36.0909C364.415 37.3977 364.585 38.5021 364.926 39.4041C365.274 40.299 365.782 40.9808 366.45 41.4496C367.124 41.9112 367.952 42.142 368.932 42.142C369.912 42.142 370.736 41.9112 371.403 41.4496C372.078 40.9808 372.586 40.299 372.927 39.4041C373.275 38.5021 373.449 37.3977 373.449 36.0909Z" fill="white"/>
</g>
<g id="recLacZ1">
<rect id="bhlk_5" x="416" width="118" height="76" rx="10" fill="black"/>
<rect id="09grfgjvdf" x="417" y="1" width="118" height="74" rx="9" fill="url(#paint11_linear_8_76)" stroke="black" stroke-width="2"/>
<path id="Lac Z" d="M444.406 47V25.1818H450.33V42.2273H459.151V47H444.406ZM466.19 47.2557C465.146 47.2557 464.222 47.0852 463.42 46.7443C462.624 46.3963 461.999 45.8707 461.545 45.1676C461.09 44.4645 460.863 43.5696 460.863 42.483C460.863 41.5881 461.016 40.8246 461.321 40.1925C461.627 39.5533 462.053 39.0312 462.6 38.6264C463.146 38.2216 463.782 37.9126 464.507 37.6996C465.238 37.4865 466.026 37.348 466.872 37.2841C467.788 37.2131 468.523 37.1278 469.077 37.0284C469.638 36.9219 470.043 36.7763 470.291 36.5916C470.54 36.3999 470.664 36.1477 470.664 35.8352V35.7926C470.664 35.3665 470.501 35.0398 470.174 34.8125C469.847 34.5852 469.428 34.4716 468.917 34.4716C468.356 34.4716 467.898 34.5959 467.543 34.8445C467.195 35.0859 466.985 35.4588 466.914 35.9631H461.502C461.573 34.9687 461.889 34.0526 462.45 33.2145C463.019 32.3693 463.846 31.6946 464.933 31.1903C466.019 30.679 467.376 30.4233 469.002 30.4233C470.174 30.4233 471.225 30.5618 472.156 30.8388C473.086 31.1087 473.878 31.4886 474.531 31.9787C475.185 32.4616 475.682 33.0298 476.023 33.6832C476.371 34.3295 476.545 35.0327 476.545 35.7926V47H471.048V44.6989H470.92C470.593 45.3097 470.195 45.8033 469.727 46.1797C469.265 46.5561 468.736 46.8295 468.139 47C467.55 47.1705 466.9 47.2557 466.19 47.2557ZM468.107 43.5483C468.555 43.5483 468.974 43.456 469.365 43.2713C469.762 43.0866 470.085 42.8203 470.334 42.4723C470.583 42.1243 470.707 41.7017 470.707 41.2045V39.8409C470.551 39.9048 470.384 39.9652 470.206 40.022C470.036 40.0788 469.851 40.1321 469.652 40.1818C469.46 40.2315 469.254 40.2777 469.034 40.3203C468.821 40.3629 468.597 40.402 468.363 40.4375C467.909 40.5085 467.536 40.6257 467.244 40.7891C466.96 40.9453 466.747 41.1406 466.605 41.375C466.47 41.6023 466.403 41.858 466.403 42.142C466.403 42.5966 466.563 42.9446 466.882 43.1861C467.202 43.4276 467.61 43.5483 468.107 43.5483ZM487.238 47.2983C485.463 47.2983 483.943 46.9467 482.679 46.2436C481.414 45.5334 480.445 44.5462 479.77 43.282C479.096 42.0107 478.758 40.5369 478.758 38.8608C478.758 37.1847 479.096 35.7145 479.77 34.4503C480.445 33.179 481.414 32.1918 482.679 31.4886C483.943 30.7784 485.463 30.4233 487.238 30.4233C488.843 30.4233 490.232 30.7145 491.404 31.2969C492.583 31.8722 493.495 32.6889 494.142 33.7472C494.788 34.7983 495.115 36.0341 495.122 37.4545H489.667C489.589 36.5952 489.341 35.9418 488.922 35.4943C488.51 35.0398 487.977 34.8125 487.324 34.8125C486.812 34.8125 486.365 34.9616 485.981 35.2599C485.598 35.5511 485.299 35.995 485.086 36.5916C484.873 37.1811 484.767 37.9233 484.767 38.8182C484.767 39.7131 484.873 40.4588 485.086 41.0554C485.299 41.6449 485.598 42.0888 485.981 42.3871C486.365 42.6783 486.812 42.8239 487.324 42.8239C487.757 42.8239 488.14 42.7244 488.474 42.5256C488.808 42.3196 489.078 42.0213 489.284 41.6307C489.497 41.233 489.625 40.75 489.667 40.1818H495.122C495.1 41.6236 494.77 42.8807 494.131 43.9531C493.492 45.0185 492.586 45.8423 491.414 46.4247C490.25 47.0071 488.858 47.2983 487.238 47.2983ZM503.525 47V43.7188L513.837 29.9545H503.567V25.1818H521.38V28.4631L511.067 42.2273H521.337V47H503.525Z" fill="white"/>
</g>
<g id="recLacY1">
<rect id="bhlk_6" x="535" width="119" height="76" rx="10" fill="black"/>
<rect id="iroijbjb" x="535" y="1" width="118" height="74" rx="9" fill="url(#paint12_linear_8_76)" stroke="black" stroke-width="2"/>
<path id="Lac Y" d="M561.406 47V25.1818H567.33V42.2273H576.151V47H561.406ZM583.19 47.2557C582.146 47.2557 581.222 47.0852 580.42 46.7443C579.624 46.3963 578.999 45.8707 578.545 45.1676C578.09 44.4645 577.863 43.5696 577.863 42.483C577.863 41.5881 578.016 40.8246 578.321 40.1925C578.627 39.5533 579.053 39.0312 579.6 38.6264C580.146 38.2216 580.782 37.9126 581.507 37.6996C582.238 37.4865 583.026 37.348 583.872 37.2841C584.788 37.2131 585.523 37.1278 586.077 37.0284C586.638 36.9219 587.043 36.7763 587.291 36.5916C587.54 36.3999 587.664 36.1477 587.664 35.8352V35.7926C587.664 35.3665 587.501 35.0398 587.174 34.8125C586.847 34.5852 586.428 34.4716 585.917 34.4716C585.356 34.4716 584.898 34.5959 584.543 34.8445C584.195 35.0859 583.985 35.4588 583.914 35.9631H578.502C578.573 34.9687 578.889 34.0526 579.45 33.2145C580.019 32.3693 580.846 31.6946 581.933 31.1903C583.019 30.679 584.376 30.4233 586.002 30.4233C587.174 30.4233 588.225 30.5618 589.156 30.8388C590.086 31.1087 590.878 31.4886 591.531 31.9787C592.185 32.4616 592.682 33.0298 593.023 33.6832C593.371 34.3295 593.545 35.0327 593.545 35.7926V47H588.048V44.6989H587.92C587.593 45.3097 587.195 45.8033 586.727 46.1797C586.265 46.5561 585.736 46.8295 585.139 47C584.55 47.1705 583.9 47.2557 583.19 47.2557ZM585.107 43.5483C585.555 43.5483 585.974 43.456 586.365 43.2713C586.762 43.0866 587.085 42.8203 587.334 42.4723C587.583 42.1243 587.707 41.7017 587.707 41.2045V39.8409C587.551 39.9048 587.384 39.9652 587.206 40.022C587.036 40.0788 586.851 40.1321 586.652 40.1818C586.46 40.2315 586.254 40.2777 586.034 40.3203C585.821 40.3629 585.597 40.402 585.363 40.4375C584.909 40.5085 584.536 40.6257 584.244 40.7891C583.96 40.9453 583.747 41.1406 583.605 41.375C583.47 41.6023 583.403 41.858 583.403 42.142C583.403 42.5966 583.563 42.9446 583.882 43.1861C584.202 43.4276 584.61 43.5483 585.107 43.5483ZM604.238 47.2983C602.463 47.2983 600.943 46.9467 599.679 46.2436C598.414 45.5334 597.445 44.5462 596.77 43.282C596.096 42.0107 595.758 40.5369 595.758 38.8608C595.758 37.1847 596.096 35.7145 596.77 34.4503C597.445 33.179 598.414 32.1918 599.679 31.4886C600.943 30.7784 602.463 30.4233 604.238 30.4233C605.843 30.4233 607.232 30.7145 608.404 31.2969C609.583 31.8722 610.495 32.6889 611.142 33.7472C611.788 34.7983 612.115 36.0341 612.122 37.4545H606.667C606.589 36.5952 606.341 35.9418 605.922 35.4943C605.51 35.0398 604.977 34.8125 604.324 34.8125C603.812 34.8125 603.365 34.9616 602.981 35.2599C602.598 35.5511 602.299 35.995 602.086 36.5916C601.873 37.1811 601.767 37.9233 601.767 38.8182C601.767 39.7131 601.873 40.4588 602.086 41.0554C602.299 41.6449 602.598 42.0888 602.981 42.3871C603.365 42.6783 603.812 42.8239 604.324 42.8239C604.757 42.8239 605.14 42.7244 605.474 42.5256C605.808 42.3196 606.078 42.0213 606.284 41.6307C606.497 41.233 606.625 40.75 606.667 40.1818H612.122C612.1 41.6236 611.77 42.8807 611.131 43.9531C610.492 45.0185 609.586 45.8423 608.414 46.4247C607.25 47.0071 605.858 47.2983 604.238 47.2983ZM619.545 25.1818H626.15L630.411 34.0455H630.581L634.843 25.1818H641.448L633.437 40.1392V47H627.556V40.1392L619.545 25.1818Z" fill="white"/>
</g>
<g id="recLacA1">
<rect id="bhlk_7" x="653" width="120" height="76" rx="10" fill="black"/>
<rect id="lkjflkjv" x="654" y="1" width="118" height="74" rx="9" fill="url(#paint13_linear_8_76)" stroke="black" stroke-width="2"/>
<path id="Lac A" d="M681.406 47V25.1818H687.33V42.2273H696.151V47H681.406ZM703.19 47.2557C702.146 47.2557 701.222 47.0852 700.42 46.7443C699.624 46.3963 698.999 45.8707 698.545 45.1676C698.09 44.4645 697.863 43.5696 697.863 42.483C697.863 41.5881 698.016 40.8246 698.321 40.1925C698.627 39.5533 699.053 39.0312 699.6 38.6264C700.146 38.2216 700.782 37.9126 701.507 37.6996C702.238 37.4865 703.026 37.348 703.872 37.2841C704.788 37.2131 705.523 37.1278 706.077 37.0284C706.638 36.9219 707.043 36.7763 707.291 36.5916C707.54 36.3999 707.664 36.1477 707.664 35.8352V35.7926C707.664 35.3665 707.501 35.0398 707.174 34.8125C706.847 34.5852 706.428 34.4716 705.917 34.4716C705.356 34.4716 704.898 34.5959 704.543 34.8445C704.195 35.0859 703.985 35.4588 703.914 35.9631H698.502C698.573 34.9687 698.889 34.0526 699.45 33.2145C700.019 32.3693 700.846 31.6946 701.933 31.1903C703.019 30.679 704.376 30.4233 706.002 30.4233C707.174 30.4233 708.225 30.5618 709.156 30.8388C710.086 31.1087 710.878 31.4886 711.531 31.9787C712.185 32.4616 712.682 33.0298 713.023 33.6832C713.371 34.3295 713.545 35.0327 713.545 35.7926V47H708.048V44.6989H707.92C707.593 45.3097 707.195 45.8033 706.727 46.1797C706.265 46.5561 705.736 46.8295 705.139 47C704.55 47.1705 703.9 47.2557 703.19 47.2557ZM705.107 43.5483C705.555 43.5483 705.974 43.456 706.365 43.2713C706.762 43.0866 707.085 42.8203 707.334 42.4723C707.583 42.1243 707.707 41.7017 707.707 41.2045V39.8409C707.551 39.9048 707.384 39.9652 707.206 40.022C707.036 40.0788 706.851 40.1321 706.652 40.1818C706.46 40.2315 706.254 40.2777 706.034 40.3203C705.821 40.3629 705.597 40.402 705.363 40.4375C704.909 40.5085 704.536 40.6257 704.244 40.7891C703.96 40.9453 703.747 41.1406 703.605 41.375C703.47 41.6023 703.403 41.858 703.403 42.142C703.403 42.5966 703.563 42.9446 703.882 43.1861C704.202 43.4276 704.61 43.5483 705.107 43.5483ZM724.238 47.2983C722.463 47.2983 720.943 46.9467 719.679 46.2436C718.414 45.5334 717.445 44.5462 716.77 43.282C716.096 42.0107 715.758 40.5369 715.758 38.8608C715.758 37.1847 716.096 35.7145 716.77 34.4503C717.445 33.179 718.414 32.1918 719.679 31.4886C720.943 30.7784 722.463 30.4233 724.238 30.4233C725.843 30.4233 727.232 30.7145 728.404 31.2969C729.583 31.8722 730.495 32.6889 731.142 33.7472C731.788 34.7983 732.115 36.0341 732.122 37.4545H726.667C726.589 36.5952 726.341 35.9418 725.922 35.4943C725.51 35.0398 724.977 34.8125 724.324 34.8125C723.812 34.8125 723.365 34.9616 722.981 35.2599C722.598 35.5511 722.299 35.995 722.086 36.5916C721.873 37.1811 721.767 37.9233 721.767 38.8182C721.767 39.7131 721.873 40.4588 722.086 41.0554C722.299 41.6449 722.598 42.0888 722.981 42.3871C723.365 42.6783 723.812 42.8239 724.324 42.8239C724.757 42.8239 725.14 42.7244 725.474 42.5256C725.808 42.3196 726.078 42.0213 726.284 41.6307C726.497 41.233 726.625 40.75 726.667 40.1818H732.122C732.1 41.6236 731.77 42.8807 731.131 43.9531C730.492 45.0185 729.586 45.8423 728.414 46.4247C727.25 47.0071 725.858 47.2983 724.238 47.2983ZM746.107 47H739.715L746.917 25.1818H755.013L762.215 47H755.823L751.05 31.1903H750.88L746.107 47ZM744.914 38.392H756.931V42.8239H744.914V38.392Z" fill="white"/>
</g>
</g>
<defs>
<radialGradient id="paint0_radial_8_76" cx="0" cy="0" r="1" gradientUnits="userSpaceOnUse" gradientTransform="translate(50 38) rotate(107.496) scale(96.4624 126.924)">
<stop stop-color="#CE25BD"/>
<stop offset="1" stop-color="#401C1C" stop-opacity="0"/>
</radialGradient>
<radialGradient id="paint1_radial_8_76" cx="0" cy="0" r="1" gradientUnits="userSpaceOnUse" gradientTransform="translate(153 65) rotate(13.3669) scale(103.812 163.914)">
<stop stop-color="#CD1E1E"/>
<stop offset="1" stop-color="#29D3C9" stop-opacity="0"/>
</radialGradient>
<linearGradient id="paint2_linear_8_76" x1="268" y1="9.01912e-07" x2="291" y2="132" gradientUnits="userSpaceOnUse">
<stop stop-color="#2BABBC"/>
<stop offset="1" stop-color="#36A60F" stop-opacity="0"/>
</linearGradient>
<linearGradient id="paint3_linear_8_76" x1="367" y1="5.88204e-07" x2="352" y2="131" gradientUnits="userSpaceOnUse">
<stop stop-color="#E33812"/>
<stop offset="1" stop-color="#F8B815" stop-opacity="0.33"/>
</linearGradient>
<linearGradient id="paint4_linear_8_76" x1="488" y1="-7.28158e-07" x2="416" y2="193" gradientUnits="userSpaceOnUse">
<stop stop-color="#DBF923"/>
<stop offset="1" stop-color="#B8F33A" stop-opacity="0"/>
</linearGradient>
<linearGradient id="paint5_linear_8_76" x1="594" y1="-7.52901e-07" x2="562" y2="168" gradientUnits="userSpaceOnUse">
<stop stop-color="#3C8393"/>
<stop offset="1" stop-color="#BC4C45" stop-opacity="0"/>
</linearGradient>
<linearGradient id="paint6_linear_8_76" x1="713" y1="3.48217e-06" x2="639" y2="136" gradientUnits="userSpaceOnUse">
<stop stop-color="#8CEC40"/>
<stop offset="0.868421" stop-color="#DBF536" stop-opacity="0"/>
</linearGradient>
<radialGradient id="paint7_radial_8_76" cx="0" cy="0" r="1" gradientUnits="userSpaceOnUse" gradientTransform="translate(50 38) rotate(107.496) scale(96.4624 126.924)">
<stop stop-color="#CE25BD"/>
<stop offset="1" stop-color="#401C1C" stop-opacity="0"/>
</radialGradient>
<radialGradient id="paint8_radial_8_76" cx="0" cy="0" r="1" gradientUnits="userSpaceOnUse" gradientTransform="translate(153 65) rotate(13.3669) scale(103.812 163.914)">
<stop stop-color="#CD1E1E"/>
<stop offset="1" stop-color="#29D3C9" stop-opacity="0"/>
</radialGradient>
<linearGradient id="paint9_linear_8_76" x1="268" y1="9.01912e-07" x2="291" y2="132" gradientUnits="userSpaceOnUse">
<stop stop-color="#2BABBC"/>
<stop offset="1" stop-color="#36A60F" stop-opacity="0"/>
</linearGradient>
<linearGradient id="paint10_linear_8_76" x1="367" y1="5.88204e-07" x2="352" y2="131" gradientUnits="userSpaceOnUse">
<stop stop-color="#E33812"/>
<stop offset="1" stop-color="#F8B815" stop-opacity="0.33"/>
</linearGradient>
<linearGradient id="paint11_linear_8_76" x1="488" y1="-7.28158e-07" x2="416" y2="193" gradientUnits="userSpaceOnUse">
<stop stop-color="#DBF923"/>
<stop offset="1" stop-color="#B8F33A" stop-opacity="0"/>
</linearGradient>
<linearGradient id="paint12_linear_8_76" x1="594" y1="-7.52901e-07" x2="562" y2="168" gradientUnits="userSpaceOnUse">
<stop stop-color="#3C8393"/>
<stop offset="1" stop-color="#BC4C45" stop-opacity="0"/>
</linearGradient>
<linearGradient id="paint13_linear_8_76" x1="713" y1="3.48217e-06" x2="639" y2="136" gradientUnits="userSpaceOnUse">
<stop stop-color="#8CEC40"/>
<stop offset="0.868421" stop-color="#DBF536" stop-opacity="0"/>
</linearGradient>
</defs>
</svg>
